<svg width="40" height="40" viewBox="0 0 40 40" fill="none" xmlns="http://www.w3.org/2000/svg">
<rect width="40" height="40" fill="white"/>
<path d="M3.56 31V8.28H7.72V19.128L5.8 17.752H19.176L17.288 19.128V8.28H21.448V31H17.288V20.024L19.176 21.368H5.8L7.72 20.024V31H3.56Z" fill="#111827"/>
<path d="M17.56 31V8.28H25.112C28.7387 8.28 31.5227 9.272 33.464 11.256C35.4267 13.2187 36.408 16.024 36.408 19.672C36.408 23.2987 35.448 26.0933 33.528 28.056C31.608 30.0187 28.8667 31 25.304 31H17.56ZM21.72 27.384H25.112C27.48 27.384 29.24 26.744 30.392 25.464C31.544 24.184 32.12 22.2533 32.12 19.672C32.12 17.048 31.544 15.096 30.392 13.816C29.24 12.536 27.48 11.896 25.112 11.896H21.72V27.384Z" fill="#111827"/>
</svg>
